<svg width="145" height="20" viewBox="0 0 145 20" fill="none" xmlns="http://www.w3.org/2000/svg">
<g clip-path="url(#clip0_1866_62236)">
<path d="M72.514 15.3571C72.514 16.1263 72.4857 18.4066 72.4857 19.2582C66.099 19.2582 59.8819 19.2582 53.5518 19.2582C53.5518 13.1868 53.5518 7.19778 53.5518 1.09888C59.8536 1.09888 66.099 1.09888 72.4009 1.09888C72.4009 2.36261 72.4009 3.5714 72.4009 4.99998C67.5968 4.99998 62.7926 4.99998 57.8755 4.99998C57.8755 6.01646 57.8755 6.86811 57.8755 7.85712C61.3797 7.85712 64.8556 7.85712 68.4163 7.85712C68.4163 9.23074 68.4163 10.4945 68.4163 11.8681C64.9404 11.8681 61.4644 11.8681 57.9037 11.8681C57.9037 13.0769 57.9037 14.1483 57.9037 15.3571H72.514Z" fill="#3B3E3D"/>
<path d="M96.1673 19.2857C89.7524 19.2857 83.5353 19.2857 77.2334 19.2857C77.2334 13.2143 77.2334 7.22525 77.2334 1.09888C83.4788 1.09888 89.7241 1.09888 96.0543 1.09888C96.0543 2.36261 96.0543 3.59888 96.0543 4.99998C91.2219 4.99998 86.446 4.99998 81.5854 4.99998C81.5854 5.98899 81.5854 6.84063 81.5854 7.85712C85.1178 7.85712 88.622 7.85712 92.1827 7.85712C92.1827 9.23074 92.1827 10.467 92.1827 11.8406C88.6785 11.8406 85.1744 11.8406 81.5854 11.8406C81.5854 13.0769 81.5854 14.1483 81.5854 15.3571L96.1673 15.467V19.2857Z" fill="#3B3E3D"/>
<path d="M48.7762 19.3405C47.9285 19.3405 45.7242 19.313 44.6786 19.313C44.6786 16.8405 44.6786 14.4504 44.6786 11.9504C40.4114 11.9504 36.3703 11.9504 32.1031 11.9504C32.1031 14.3955 32.1031 16.7306 32.1031 19.1757C30.6618 19.1757 29.2771 19.1757 27.8076 19.1757C27.8076 13.1592 27.8076 7.14272 27.8076 1.07129C29.1923 1.07129 30.5205 1.07129 32.0748 1.07129C32.0748 3.26909 32.0748 5.46689 32.0748 7.77459C36.3138 7.77459 40.3831 7.77459 44.5938 7.77459C44.5938 5.52184 44.5938 3.35151 44.5938 1.07129C46.0351 1.07129 47.335 1.07129 48.7762 1.07129" fill="#3B3E3D"/>
<path d="M24.162 5.93404C22.9751 6.34613 21.3078 6.92305 20.2622 7.25272C20.2622 7.25272 20.2057 7.25273 19.6687 6.73075C16.6732 4.20327 13.2255 3.90108 9.60831 5.02745C7.00843 5.82415 5.51067 7.91207 5.56719 10.2472C5.59545 12.6373 7.09321 14.5879 9.74961 15.3571C13.3668 16.3736 16.7862 16.1264 19.7818 13.5165C20.46 12.9395 20.2057 12.8571 20.6578 13.1044C21.6186 13.5714 22.9468 14.3406 24.049 14.9176C22.636 16.7582 20.9687 18.1318 18.8775 18.9011C15.1755 20.2198 11.4169 20.3022 7.68666 18.956C3.67379 17.445 1.18695 14.2307 1.13043 10.4395C1.07391 6.20877 3.33468 3.3791 7.14972 1.64833C13.1408 -1.07145 20.6578 0.796681 24.162 5.93404Z" fill="#3B3E3D"/>
<path d="M122.646 1.0166H128.327L134.205 8.2144L139.857 1.0166H145.509L136.494 11.9507V19.2858H131.972V12.0331L122.646 1.0166Z" fill="#3B3E3D"/>
<path d="M100.774 1.01636H105.295V8.02185L114.112 1.01636H120.753L112.36 8.2691L124.003 19.2856H118.069L108.913 10.9614L105.295 13.9834L105.211 19.2856H100.774V1.01636Z" fill="#3B3E3D"/>
</g>
<defs>
<clipPath id="clip0_1866_62236">
<rect width="145" height="20" fill="white"/>
</clipPath>
</defs>
</svg>
