<?xml version="1.0" encoding="utf-8"?>
<!-- Generator: Adobe Illustrator 26.5.0, SVG Export Plug-In . SVG Version: 6.00 Build 0)  -->
<svg version="1.0" id="Layer_1" xmlns="http://www.w3.org/2000/svg" xmlns:xlink="http://www.w3.org/1999/xlink" x="0px" y="0px"
	 viewBox="0 0 769.81 571.61" style="enable-background:new 0 0 769.81 571.61;" xml:space="preserve">
<style type="text/css">
	.st0{fill:#E31F2B;}
</style>

<path class="st0" d="M146.84,440.18c2.37-0.3,4.76-0.21,7.1,0.26c6.25,0.98,12.07,3.76,16.76,8c5.21,4.67,8.89,10.88,11.56,17.37
	c3.15,7.6,5.85,15.37,8.54,23.15c0.32,0.93,0.89,2.1,2.06,2.05c1.14,0.15,1.86-0.88,2.14-1.84c4.56-12.72,9.21-25.41,13.67-38.17
	c0.5-1.74,2.1-2.92,3.91-2.89c7.36-0.08,14.73,0,22.09,0c0.67-0.09,1.35,0.04,1.94,0.37c0.27,1.37,0.36,3-0.61,4.13
	c-1.21,1.83-3.24,3.41-3.16,5.82c0,13.67,0,27.34,0,41c-0.18,2.89,2.45,4.63,3.71,6.92c0.27,1.01,0.32,2.07,0.16,3.11
	c-0.42,0.69-1.39,0.46-2.07,0.54c-5.75-0.07-11.52,0.06-17.27-0.06c-0.94,0.05-0.93-1-0.93-1.64c-0.36-3.45,4-5,3.92-8.45
	c0-10.58,0-21.18,0-31.76c0-1.06,0-2.52-1.19-3c-0.99-0.21-2-0.25-3-0.1c-0.92,0.15-1.33,1.11-1.62,1.89
	c-4,11.19-7.97,22.38-11.91,33.57c-0.36,1.22-1.13,2.28-2.18,3c-1.34,0.78-2.9,1.11-4.45,0.94c-2.66,0-5.33,0.05-8,0
	c-2.11-0.1-3.96-1.44-4.7-3.42c-4-11.33-8-22.65-12-33.94c-0.35-0.83-0.73-2-1.81-2.06s-2.78-0.44-3.55,0.73
	c-0.37,0.87-0.52,1.82-0.45,2.77c0,10.45,0,20.9,0,31.35c0,2.85,2.85,4.42,3.8,6.86c0,1.06,0.67,3.2-1,3.24c-6,0.05-12.08,0-18.12,0
	c-1.58,0.05-1.05-1.95-1.07-2.94c0.63-2.55,3.64-4,3.78-6.76c0-15.15,0-30.3,0-45.46c-0.05-0.78-0.72-1.36-1.5-1.31
	c-0.13,0.01-0.26,0.04-0.39,0.08c-2.62,0.47-5.63,0.39-7.74-1.45c-2.81-2.55-3.03-6.9-0.47-9.72c1.04-1.14,2.43-1.91,3.95-2.16
	L146.84,440.18z"/>
<path class="st0" d="M272.61,447.05c5.92-0.73,11.93,0.17,17.38,2.58c7.52,3.35,13.48,9.42,16.69,17
	c5.57,13.27,1.57,28.63-9.77,37.5c-5.72,4.53-12.8,7-20.1,7c-13.83,0.11-26.2-8.58-30.79-21.62c-5.77-16.85,3.21-35.19,20.06-40.96
	C268.2,447.82,270.39,447.32,272.61,447.05z M273.37,459.05c-3.87,0.71-7.42,2.62-10.14,5.46c-7.89,8.11-7.85,21.04,0.1,29.09
	c4.33,4.49,10.63,6.49,16.76,5.34c5.08-1.02,9.55-4.04,12.38-8.38c2.98-4.52,4.11-10.02,3.13-15.35c-0.95-5.3-3.96-10.01-8.37-13.11
	c-4.02-2.84-9.01-3.95-13.86-3.08L273.37,459.05z"/>
<path class="st0" d="M321.1,454.81c4.53-5.12,11.36-7.57,18-8.13c7.7-0.57,15.41,0.72,22.93,2.3c0.71,0.26,2.07,0.24,1.93,1.32
	c0,4,0,8.08,0,12.12c0.03,0.57-0.12,1.13-0.41,1.61c-1.13,0.09-2.27,0.01-3.38-0.24c-1.58-0.94-3-2.17-4.58-3.1
	c-5.42-3.05-11.76-4.04-17.86-2.79c-2.29,0.4-4.39,1.51-6,3.18c-1.61,1.89-1.97,4.55-0.9,6.79c1.15,1.73,2.88,2.99,4.87,3.56
	c8,2.88,17,2.28,24.73,6.19c3.89,1.75,6.84,5.1,8.08,9.18c1.25,4.76,0.81,10.15-2,14.3c-3.06,4.67-8.26,7.46-13.54,8.88
	c-7.39,1.77-15.09,1.79-22.49,0.08c-4.15-0.89-8.32-1.74-12.37-3c-0.06-4.71,0-9.43,0-14.14c-0.17-1.22,1.37-1.07,2.15-1.07
	c1.47-0.08,2.56,1,3.7,1.79c1.93,1.51,4.04,2.78,6.28,3.77c4,1.51,8.16,2.74,12.46,2.6c3.7,0,7.69-0.4,10.74-2.71
	c2.27-1.73,3.09-4.77,2-7.4c-0.78-1.46-2.09-2.57-3.65-3.11c-3.28-1.37-6.87-1.62-10.31-2.4c-6.44-1.33-13.37-2-18.91-5.84
	c-3.58-2.49-5.76-6.53-5.87-10.89C316.32,462.95,317.91,458.3,321.1,454.81z"/>
<path class="st0" d="M451.3,448.86c5.81-2.39,12.28-2.69,18.29-0.86c2.68,0.9,5.24,2.12,7.63,3.63c1.37,0.92,3.11,1.08,4.62,0.42
	c1.71-0.91,3-2.47,4.75-3.3c2.53-0.24,5.1-0.08,7.65-0.09c0.68-0.1,0.82,0.77,0.77,1.27c0,19.85-0.05,39.7,0,59.55
	c-1.1,0.68-2.42,0.39-3.63,0.44c-1.61,0.08-3.23,0.02-4.83-0.18c-1.79-0.91-3.14-2.5-4.92-3.42s-3.69,0-5.22,1
	c-4.59,3-10.2,4-15.61,3.83c-8.16-0.32-15.79-4.17-20.89-10.55c-8.57-10.5-9.65-26.17-3.42-38.08
	C439.66,456.36,444.91,451.53,451.3,448.86z M460.65,459.06c-7.7,1.55-13.49,8.56-14.69,16.16c-1.12,6.34,0.64,12.85,4.8,17.77
	c3.68,4.36,9.24,6.66,14.93,6.19c4.59-0.31,8.85-2.47,11.8-6c3.85-4.73,5.15-11.15,4.48-17.11c-0.42-5.11-2.76-9.88-6.56-13.33
	C471.3,459.35,465.87,457.99,460.65,459.06L460.65,459.06z"/>
<path class="st0" d="M592.05,447.03c5.58-0.72,11.24,0.36,16.16,3.07c2,1,3.79,2.75,6.16,2.31s3.82-2.78,6-3.71
	c2.7-0.14,5.4,0,8.11,0c0.25,1.36,0.32,2.74,0.23,4.11v55.89c0,0.5-0.1,1.13-0.71,1.19c-2,0.16-4,0-6,0.07
	c-3.31,0.27-4.86-3.73-8.05-3.92c-1.44,0.08-2.82,0.56-4,1.39c-4.24,2.56-9.11,3.85-14.06,3.74c-7.14,0.1-14.05-2.53-19.31-7.36
	c-13.05-11.84-13.88-34.18-2.31-47.31C578.83,451.26,585.16,447.89,592.05,447.03z M595.53,458.81c-3.86,0.55-7.44,2.35-10.17,5.13
	c-4.79,4.91-6.93,11.81-5.77,18.57c0.85,5.55,3.93,10.5,8.53,13.72c3.92,2.65,8.75,3.59,13.38,2.6c4.32-0.84,8.13-3.35,10.59-7
	c3.31-4.8,4.18-10.92,3.45-16.62c-0.55-4.71-2.74-9.07-6.18-12.32C605.54,459.62,600.51,458.13,595.53,458.81z"/>
<path class="st0" d="M373.18,449.13c-0.1-0.94,1-1.16,1.68-1.1c17.68,0,35.36,0,53.05,0c0.64-0.07,1.45,0.28,1.29,1.06
	c0,4,0,8.06,0,12.09c-0.07,0.57,0.18,1.35-0.45,1.67c-0.94,0.12-1.9,0.12-2.84,0c-2.31-1-3.81-3.62-6.49-3.74c-3.21,0-6.42,0-9.63,0
	c-0.93-0.16-1.82,0.46-1.98,1.4c-0.02,0.09-0.02,0.18-0.02,0.27c0,13,0,26,0,39c-0.09,2.83,2.78,4.41,3.74,6.83
	c0.22,1.02,0.16,2.09-0.18,3.08c-0.77,0.21-1.57,0.28-2.37,0.23c-5.76-0.07-11.52,0.06-17.28-0.06c-0.88,0-0.94-1-0.91-1.63
	c-0.33-3.46,4-5.06,3.93-8.47c0-12.85,0-25.7,0-38.54c0.16-1-0.52-1.95-1.53-2.11c-0.09-0.01-0.18-0.02-0.27-0.02
	c-3.21,0-6.42,0-9.63,0c-2.85-0.07-4.44,2.82-6.89,3.77c-1,0.1-1.91,0.06-2.86,0.09c-0.29-0.54-0.43-1.14-0.42-1.75
	C373.18,457.18,373.11,453.15,373.18,449.13z"/>
<path class="st0" d="M507.91,448.1c15-0.14,30,0,44.92-0.06c1.95,0,3.91-0.1,5.86,0.06c0.86,0.18,0.62,1.2,0.68,1.85
	c0,2.28,0,4.56,0,6.83c-0.05,0.96-0.46,1.87-1.15,2.55c-10.6,12.04-21.2,24.08-31.81,36.12c-0.67,0.65-0.68,1.72-0.03,2.39
	c0.31,0.32,0.74,0.5,1.18,0.51c7.37,0,14.73,0,22.1,0c2.86,0.08,4.45-2.76,6.88-3.75c1-0.17,2.01-0.14,3,0.08
	c0.31,0.72,0.42,1.5,0.33,2.27c-0.07,4,0.06,8-0.06,12c-0.06,0.94-1.09,0.94-1.78,0.92h-49c-0.52,0-1.27,0-1.42-0.61
	c-0.15-2.52,0-5-0.06-7.55c-0.09-1.04,0.28-2.07,1-2.83c10.49-12.16,20.98-24.32,31.47-36.47c0.64-0.68,0.61-1.75-0.07-2.39
	c-0.32-0.3-0.74-0.47-1.18-0.46c-7.25,0-14.5,0-21.75,0c-2.81,0-4.33,2.91-6.79,3.76c-1,0-2.24,0.37-3-0.28
	c-0.2-4.37,0-8.76-0.09-13.14C507.17,449.27,506.91,448.13,507.91,448.1z"/>
</svg>
