<?xml version="1.0" encoding="UTF-8"?><svg id="Layer_1" xmlns="http://www.w3.org/2000/svg" viewBox="0 0 754.78 110.37"><defs><style>.cls-1{fill:#e31f2b;stroke-width:0px;}</style></defs><path class="cls-1" d="M9.03.27c3.67-.46,7.37-.32,10.99.4,9.67,1.52,18.68,5.82,25.94,12.38,8.06,7.23,13.76,16.84,17.89,26.88,4.87,11.76,9.05,23.78,13.22,35.82.5,1.44,1.38,3.25,3.19,3.17,1.76.23,2.88-1.36,3.31-2.85,7.06-19.68,14.25-39.32,21.15-59.07.77-2.69,3.25-4.52,6.05-4.47,11.39-.12,22.79,0,34.18,0,1.04-.14,2.09.06,3,.57.42,2.12.56,4.64-.94,6.39-1.87,2.83-5.01,5.28-4.89,9.01v63.45c-.28,4.47,3.79,7.16,5.74,10.71.42,1.56.5,3.2.25,4.81-.65,1.07-2.15.71-3.2.84-8.9-.11-17.83.09-26.73-.09-1.45.08-1.44-1.55-1.44-2.54-.56-5.34,6.19-7.74,6.07-13.08v-49.15c0-1.64,0-3.9-1.84-4.64-1.53-.32-3.09-.39-4.64-.15-1.42.23-2.06,1.72-2.51,2.92-6.19,17.32-12.33,34.63-18.43,51.95-.56,1.89-1.75,3.53-3.37,4.64-2.07,1.21-4.49,1.72-6.89,1.45-4.12,0-8.25.08-12.38,0-3.27-.15-6.13-2.23-7.27-5.29-6.19-17.53-12.38-35.05-18.57-52.52-.54-1.28-1.13-3.09-2.8-3.19s-4.3-.68-5.49,1.13c-.57,1.35-.8,2.82-.7,4.29v48.51c0,4.41,4.41,6.84,5.88,10.62,0,1.64,1.04,4.95-1.55,5.01-9.28.08-18.69,0-28.04,0-2.45.08-1.62-3.02-1.66-4.55.97-3.95,5.63-6.19,5.85-10.46V22.83c-.08-1.21-1.11-2.1-2.32-2.03-.2.02-.4.06-.6.12-4.05.73-8.71.6-11.98-2.24C-.86,14.74-1.2,8.01,2.77,3.64,4.37,1.88,6.53.69,8.88.3l.15-.03Z"/><path class="cls-1" d="M203.66,10.9c9.16-1.13,18.46.26,26.9,3.99,11.64,5.18,20.86,14.58,25.83,26.31,8.62,20.54,2.43,44.3-15.12,58.03-8.85,7.01-19.81,10.83-31.1,10.83-21.4.17-40.54-13.28-47.65-33.46-8.93-26.08,4.97-54.46,31.04-63.39,3.28-1.13,6.67-1.9,10.11-2.32ZM204.84,29.47c-5.99,1.1-11.48,4.05-15.69,8.45-12.21,12.55-12.15,32.56.15,45.02,6.7,6.95,16.45,10.04,25.94,8.26,7.86-1.58,14.78-6.25,19.16-12.97,4.61-6.99,6.36-15.51,4.84-23.75-1.47-8.2-6.13-15.49-12.95-20.29-6.22-4.39-13.94-6.11-21.45-4.77v.05Z"/><path class="cls-1" d="M278.7,22.91c7.01-7.92,17.58-11.71,27.85-12.58,11.92-.88,23.85,1.11,35.48,3.56,1.1.4,3.2.37,2.99,2.04v18.76c.05.88-.19,1.75-.63,2.49-1.75.14-3.51.02-5.23-.37-2.45-1.45-4.64-3.36-7.09-4.8-8.39-4.72-18.2-6.25-27.64-4.32-3.54.62-6.79,2.34-9.28,4.92-2.49,2.92-3.05,7.04-1.39,10.51,1.78,2.68,4.46,4.63,7.54,5.51,12.38,4.46,26.31,3.53,38.27,9.58,6.02,2.71,10.58,7.89,12.5,14.21,1.93,7.37,1.25,15.71-3.09,22.13-4.74,7.23-12.78,11.54-20.95,13.74-11.44,2.74-23.35,2.77-34.8.12-6.42-1.38-12.88-2.69-19.14-4.64-.09-7.29,0-14.59,0-21.88-.26-1.89,2.12-1.66,3.33-1.66,2.27-.12,3.96,1.55,5.73,2.77,2.99,2.34,6.25,4.3,9.72,5.83,6.19,2.34,12.63,4.24,19.28,4.02,5.73,0,11.9-.62,16.62-4.19,3.51-2.68,4.78-7.38,3.09-11.45-1.21-2.26-3.23-3.98-5.65-4.81-5.08-2.12-10.63-2.51-15.95-3.71-9.97-2.06-20.69-3.09-29.26-9.04-5.54-3.85-8.91-10.11-9.08-16.85-.59-7.29,1.87-14.48,6.81-19.89Z"/><path class="cls-1" d="M480.18,13.7c8.99-3.7,19-4.16,28.3-1.33,4.15,1.39,8.11,3.28,11.81,5.62,2.12,1.42,4.81,1.67,7.15.65,2.65-1.41,4.64-3.82,7.35-5.11,3.92-.37,7.89-.12,11.84-.14,1.05-.15,1.27,1.19,1.19,1.97,0,30.72-.08,61.44,0,92.15-1.7,1.05-3.74.6-5.62.68-2.49.12-5,.03-7.47-.28-2.77-1.41-4.86-3.87-7.61-5.29s-5.71,0-8.08,1.55c-7.1,4.64-15.78,6.19-24.16,5.93-12.63-.5-24.43-6.45-32.33-16.33-13.26-16.25-14.93-40.5-5.29-58.93,4.91-9.53,13.03-17.01,22.92-21.14ZM494.65,29.49c-11.92,2.4-20.88,13.25-22.73,25.01-1.73,9.81.99,19.89,7.43,27.5,5.69,6.75,14.3,10.31,23.1,9.58,7.1-.48,13.7-3.82,18.26-9.28,5.96-7.32,7.97-17.25,6.93-26.48-.65-7.91-4.27-15.29-10.15-20.63-6.36-5.25-14.76-7.35-22.84-5.69h0Z"/><path class="cls-1" d="M697.99,10.87c8.64-1.11,17.39.56,25.01,4.75,3.09,1.55,5.86,4.26,9.53,3.57s5.91-4.3,9.28-5.74c4.18-.22,8.36,0,12.55,0,.39,2.1.5,4.24.36,6.36v86.49c0,.77-.15,1.75-1.1,1.84-3.09.25-6.19,0-9.28.11-5.12.42-7.52-5.77-12.46-6.07-2.23.12-4.36.87-6.19,2.15-6.56,3.96-14.1,5.96-21.76,5.79-11.05.15-21.74-3.92-29.88-11.39-20.19-18.32-21.48-52.89-3.57-73.21,7.06-8.11,16.85-13.32,27.51-14.65ZM703.38,29.1c-5.97.85-11.51,3.64-15.74,7.94-7.41,7.6-10.72,18.28-8.93,28.74,1.32,8.59,6.08,16.25,13.2,21.23,6.07,4.1,13.54,5.56,20.71,4.02,6.69-1.3,12.58-5.18,16.39-10.83,5.12-7.43,6.47-16.9,5.34-25.72-.85-7.29-4.24-14.04-9.56-19.07-5.91-5.06-13.7-7.37-21.4-6.31Z"/><path class="cls-1" d="M359.29,14.12c-.15-1.45,1.55-1.8,2.6-1.7h82.09c.99-.11,2.24.43,2,1.64v18.71c-.11.88.28,2.09-.7,2.58-1.45.19-2.94.19-4.39,0-3.57-1.55-5.9-5.6-10.04-5.79h-14.9c-1.44-.25-2.82.71-3.06,2.17-.03.14-.03.28-.03.42v60.35c-.14,4.38,4.3,6.82,5.79,10.57.34,1.58.25,3.23-.28,4.77-1.19.32-2.43.43-3.67.36-8.91-.11-17.83.09-26.74-.09-1.36,0-1.45-1.55-1.41-2.52-.51-5.35,6.19-7.83,6.08-13.11v-59.64c.25-1.55-.8-3.02-2.37-3.27-.14-.02-.28-.03-.42-.03h-14.9c-4.41-.11-6.87,4.36-10.66,5.83-1.55.15-2.96.09-4.43.14-.45-.84-.67-1.76-.65-2.71.09-6.22-.02-12.46.09-18.68Z"/><path class="cls-1" d="M567.79,12.52c23.21-.22,46.42,0,69.51-.09,3.02,0,6.05-.15,9.07.09,1.33.28.96,1.86,1.05,2.86v10.57c-.08,1.49-.71,2.89-1.78,3.95-16.4,18.63-32.81,37.26-49.23,55.9-1.04,1.01-1.05,2.66-.05,3.7.48.5,1.15.77,1.83.79h34.2c4.43.12,6.89-4.27,10.65-5.8,1.55-.26,3.11-.22,4.64.12.48,1.11.65,2.32.51,3.51-.11,6.19.09,12.38-.09,18.57-.09,1.45-1.69,1.45-2.75,1.42h-75.83c-.8,0-1.97,0-2.2-.94-.23-3.9,0-7.74-.09-11.68-.14-1.61.43-3.2,1.55-4.38,16.23-18.82,32.47-37.64,48.7-56.44.99-1.05.94-2.71-.11-3.7-.5-.46-1.15-.73-1.83-.71h-33.66c-4.35,0-6.7,4.5-10.51,5.82-1.55,0-3.47.57-4.64-.43-.31-6.76,0-13.56-.14-20.33.05-.97-.36-2.74,1.19-2.79Z"/></svg>