<svg xmlns="http://www.w3.org/2000/svg" xml:space="preserve" width="101.64mm" height="7.098mm" version="1.1" style="shape-rendering:geometricPrecision; text-rendering:geometricPrecision; image-rendering:optimizeQuality; fill-rule:evenodd; clip-rule:evenodd"
viewBox="0 0 9442 659"
 xmlns:xlink="http://www.w3.org/1999/xlink">
 
 <g id="Capa_x0020_1">
  <metadata id="CorelCorpID_0Corel-Layer"/>
  <path class="fil0" d="M3866 16l-203 0 -168 468 -242 0 0 -468 -199 0 0 613 394 0 82 0 113 0 23 -82 199 0 23 82 199 0 -222 -613zm-164 406l62 -218 66 218 -129 0z"/>
  <rect class="fil0" x="4116" y="16" width="199" height="613"/>
  <path class="fil0" d="M4588 414l0 215 -199 0 0 -613 289 0c203,0 273,55 273,176 0,70 -31,129 -101,148 66,23 105,39 105,164 0,78 -4,105 20,105l0 20 -203 0c-4,-12 -12,-55 -12,-105 0,-82 -16,-105 -109,-105l-62 0 0 -4zm0 -133l78 0c62,0 94,-16 94,-59 0,-43 -35,-62 -82,-62l-94 0 0 121 4 0z"/>
  <path class="fil0" d="M1611 195c-4,-20 -16,-35 -27,-43 -16,-8 -31,-12 -51,-12 -43,0 -62,12 -62,35 0,94 351,35 351,258 0,140 -117,211 -285,211 -160,0 -265,-94 -273,-203l191 0c4,23 16,39 35,47 16,12 39,16 59,16 51,0 82,-16 82,-47 0,-94 -351,-27 -351,-261 0,-129 113,-195 265,-195 172,0 246,86 261,195l-195 0z"/>
  <path class="fil0" d="M1861 16l199 0 0 367c0,59 12,113 94,113 74,0 94,-47 94,-113l0 -367 199 0 0 347c0,195 -90,281 -293,281 -191,0 -297,-74 -297,-285l0 -343 4 0z"/>
  <polygon class="fil0" points="2528,628 2528,16 2731,16 2731,488 3004,488 3004,628 "/>
  <path class="fil0" d="M733 258c31,0 55,-23 55,-55 0,-31 -23,-55 -55,-55 -31,0 -55,23 -55,55 0,27 23,55 55,55z"/>
  <path class="fil0" d="M601 273c-31,0 -55,23 -55,55 0,31 23,55 55,55 31,0 55,-23 55,-55 0,-31 -23,-55 -55,-55z"/>
  <path class="fil0" d="M733 402c-31,0 -55,23 -55,55 0,31 23,55 55,55 31,0 55,-23 55,-55 4,-31 -23,-55 -55,-55z"/>
  <path class="fil0" d="M546 12c-304,0 -546,148 -546,324 0,176 246,324 546,324 300,0 546,-148 546,-324 4,-183 -242,-324 -546,-324m187 101c47,0 86,39 86,86 0,47 -39,86 -86,86 -47,0 -86,-39 -86,-86 0,-47 39,-86 86,-86m-179 343l-164 -98 0 191 -39 0 0 -191 -164 98 -20 -31 164 -94 -164 -94 20 -31 164 94 0 -191 39 0 0 191 164 -94 20 31 -164 94 164 94 -20 31zm-39 -129c0,-47 39,-90 90,-90 51,0 90,39 90,90 0,47 -39,90 -90,90 -51,0 -90,-39 -90,-90m218 215c-47,0 -86,-39 -86,-86 0,-47 39,-86 86,-86 47,0 86,39 86,86 0,47 -39,86 -86,86m125 -133c-47,0 -82,-35 -82,-82 0,-47 35,-82 82,-82 47,0 82,35 82,82 0,47 -39,82 -82,82z"/>
  <path class="fil0" d="M858 273c-31,0 -55,23 -55,55 0,31 23,55 55,55 31,0 55,-23 55,-55 -4,-31 -23,-55 -55,-55z"/>
  <path class="fil0" d="M5349 23l238 601 -39 0 -74 -191 -289 0 -78 191 -39 0 242 -601 39 0zm109 378l-129 -339 0 0 -133 339 261 0z"/>
  <path class="fil0" d="M5630 23l250 0c105,0 191,39 191,156 0,82 -51,140 -129,156l0 0c90,12 113,66 117,129 8,62 -4,129 20,164l-43 0c-23,-43 -8,-109 -16,-168 -8,-59 -35,-105 -140,-105l-215 0 0 273 -35 0 0 -605zm250 297c86,0 152,-43 152,-137 0,-90 -74,-125 -152,-125l-215 0 0 265 215 0 0 -4z"/>
  <path class="fil0" d="M6683 332l0 297 -31 0 0 -129 0 0c-31,90 -121,144 -226,144 -183,0 -285,-140 -285,-312 0,-172 101,-320 285,-320 125,0 230,74 250,199l-35 0c-27,-105 -105,-168 -215,-168 -164,0 -250,137 -250,289 0,152 82,281 250,281 144,0 234,-98 226,-246l-222 0 0 -31 254 0 0 -4z"/>
  <polygon class="fil0" points="7194,597 7194,628 6785,628 6785,23 7191,23 7191,59 6824,59 6824,297 7171,297 7171,332 6824,332 6824,597 "/>
  <polygon class="fil0" points="7261,23 7304,23 7686,577 7686,577 7686,23 7725,23 7725,628 7682,628 7296,70 7296,70 7296,628 7261,628 "/>
  <polygon class="fil0" points="7768,59 7768,23 8228,23 8228,59 8014,59 8014,628 7979,628 7979,59 "/>
  <rect class="fil0" x="8267" y="23" width="39.0153" height="600.836"/>
  <polygon class="fil0" points="8412,23 8459,23 8841,577 8841,577 8841,23 8880,23 8880,628 8833,628 8451,70 8451,70 8451,628 8412,628 "/>
  <path class="fil0" d="M9204 23l238 601 -39 0 -78 -191 -289 0 -78 191 -39 0 242 -601 43 0zm109 378l-129 -339 0 0 -133 339 261 0z"/>
 </g>
</svg>
